<svg xmlns="http://www.w3.org/2000/svg" viewBox="0 0 96 64" role="img" aria-label="Docs — armored vehicle field manual">
  <g fill="none" stroke-linecap="round" stroke-linejoin="round">
    <path d="M8 10h35c4 0 5 2 5 5v39c0-3-2-5-6-5H8Zm80 0H53c-4 0-5 2-5 5v39c0-3 2-5 6-5h34Z" fill="#070b0e" stroke="#edf3f7" stroke-width="3"/>
    <path d="M48 15v39M14 42h22m24 0h22" stroke="#f0a030" stroke-width="2.5"/>
    <path d="M15 17h16m34 0h16M15 47h12m42 0h12" stroke="#45c7ff" stroke-width="2"/>
    <g id="docs-m1a2" data-vehicle="m1a2">
      <path d="M21 31h48l6 5H17Z" fill="#17242d" stroke="#edf3f7" stroke-width="2"/>
      <path d="M30 25h27l8 6H24Z" fill="#263844" stroke="#edf3f7" stroke-width="2"/>
      <path d="M38 20h15l4 5H34Z" fill="#45c7ff" stroke="#edf3f7" stroke-width="2"/>
      <path d="m52 22 23-6" stroke="#f0a030" stroke-width="2.5"/>
    </g>
  </g>
  <circle cx="48" cy="54" r="3" fill="#ff4d62"/>
</svg>
